<?xml version="1.0" encoding="utf-8"?>
<!-- Designed by Vexels.com - 2016 All Rights Reserved - https://vexels.com/terms-and-conditions/  -->

<svg version="1.1" id="Layer_1" xmlns="http://www.w3.org/2000/svg" xmlns:xlink="http://www.w3.org/1999/xlink" x="0px" y="0px"
	 width="1200px" height="1200px" viewBox="0 0 1200 1200" enable-background="new 0 0 1200 1200" xml:space="preserve">
<path fill="#575756" d="M537.753,935.186c19.229-62.015,2.05-131.397-47.357-176.983l27.185-35.815l93.299,70.681l54.688-72.021
	l-93.222-70.762l34.12-45.034l115.287,87.505c19.225-61.975,2.045-131.397-47.438-176.983l24.82-32.623l41.685,31.599
	c29.315,22.299,71.234,16.55,93.456-12.806l6.383-8.311c22.222-29.392,16.55-71.238-12.841-93.497l-41.686-31.679l91.959-121.113
	c1.101-1.38,1.812-2.994,2.364-4.611c43.73,23.719,99.524,12.689,130.49-28.129c34.2-45.038,25.297-109.574-19.778-143.771
	C946.174,36.632,881.558,45.46,847.356,90.57c-30.888,40.781-26.555,97.438,8.041,133.172c-1.42,0.984-2.679,2.13-3.784,3.546
	l-91.879,121.117l-41.685-31.639c-29.392-22.263-71.238-16.55-93.537,12.882l-6.302,8.275
	c-22.379,29.392-16.63,71.274,12.765,93.497l41.685,31.675l-24.743,32.623c-57.21-35.379-128.602-33.212-183.209,1.973
	l115.282,87.465l-34.12,44.997l-93.222-70.726l-54.765,72.025l93.299,70.802l-27.265,35.891
	c-57.206-35.343-128.677-33.172-183.128,2.009l115.283,87.509l-34.201,44.953l-41.685-31.639
	c-29.311-22.259-71.234-16.505-93.456,12.846l-6.383,8.352c-22.299,29.355-16.546,71.198,12.846,93.497l41.685,31.639
	L171.57,1123.397c-5.435,7.25-4.095,17.692,3.232,23.207c7.25,5.556,17.651,4.139,23.247-3.111l103.228-136.166l41.685,31.679
	c29.392,22.218,71.235,16.546,93.537-12.806l6.303-8.356c22.298-29.392,16.549-71.234-12.847-93.492l-41.685-31.679l34.201-44.957
	L537.753,935.186z M877.143,113.107c21.75-28.682,62.806-34.278,91.487-12.568c28.682,21.75,34.277,62.842,12.531,91.487
	c-21.75,28.682-62.806,34.318-91.411,12.568C860.989,182.844,855.397,141.752,877.143,113.107z"/>
</svg>
